<svg width="401" height="55" viewBox="0 0 401 55" fill="none" xmlns="http://www.w3.org/2000/svg">
<path d="M59.424 27.728C59.424 34.4 57.048 39.656 52.296 43.496C47.592 47.288 40.992 49.304 32.496 49.544V54.728H27.528V49.544C19.032 49.256 12.408 47.216 7.656 43.424C2.952 39.632 0.6 34.4 0.6 27.728C0.6 21.056 2.952 15.824 7.656 12.032C12.408 8.24 19.032 6.2 27.528 5.912V0.871997H32.496V5.912C40.944 6.2 47.544 8.264 52.296 12.104C57.048 15.896 59.424 21.104 59.424 27.728ZM32.496 45.296C39.456 45.008 44.832 43.352 48.624 40.328C52.416 37.304 54.312 33.104 54.312 27.728C54.312 22.352 52.392 18.152 48.552 15.128C44.76 12.104 39.408 10.472 32.496 10.232V45.296ZM5.712 27.728C5.712 33.104 7.608 37.304 11.4 40.328C15.24 43.304 20.616 44.96 27.528 45.296V10.232C20.52 10.52 15.12 12.176 11.328 15.2C7.584 18.176 5.712 22.352 5.712 27.728ZM174.387 2.6H179.643V44.36L211.899 2.6H216.723V53H211.467V11.312L179.211 53H174.387V2.6Z" fill="#4285F4"/>
<path d="M71.5194 2.6H108.383V7.136H76.7754V23.624H93.2634C99.2154 23.624 103.727 24.848 106.799 27.296C109.919 29.744 111.479 33.296 111.479 37.952C111.479 42.8 109.799 46.52 106.439 49.112C103.127 51.704 98.3514 53 92.1114 53H71.5194V2.6ZM92.0394 48.752C96.6954 48.752 100.199 47.864 102.551 46.088C104.951 44.312 106.151 41.672 106.151 38.168C106.151 34.712 104.975 32.144 102.623 30.464C100.319 28.736 96.7914 27.872 92.0394 27.872H76.7754V48.752H92.0394ZM300.45 2.6H320.97C326.298 2.6 331.002 3.68 335.082 5.84C339.162 7.952 342.33 10.928 344.586 14.768C346.842 18.56 347.97 22.904 347.97 27.8C347.97 32.696 346.842 37.064 344.586 40.904C342.33 44.696 339.162 47.672 335.082 49.832C331.002 51.944 326.298 53 320.97 53H300.45V2.6ZM320.682 48.392C325.098 48.392 328.962 47.528 332.274 45.8C335.586 44.024 338.154 41.6 339.978 38.528C341.802 35.408 342.714 31.832 342.714 27.8C342.714 23.768 341.802 20.216 339.978 17.144C338.154 14.024 335.586 11.6 332.274 9.872C328.962 8.096 325.098 7.208 320.682 7.208H305.778V48.392H320.682Z" fill="#EA4335"/>
<path d="M140.536 29.888H129.016V53H123.832V2.6H129.016V25.208H140.536L157.6 2.6H163.36L144.64 27.08L164.44 53H158.32L140.536 29.888ZM380.239 53.432C373.711 53.432 368.623 51.56 364.975 47.816C361.327 44.072 359.503 38.624 359.503 31.472V2.6H364.831V31.256C364.831 37.112 366.151 41.48 368.791 44.36C371.431 47.24 375.247 48.68 380.239 48.68C385.279 48.68 389.119 47.24 391.759 44.36C394.399 41.48 395.719 37.112 395.719 31.256V2.6H400.903V31.472C400.903 38.624 399.079 44.072 395.431 47.816C391.831 51.56 386.767 53.432 380.239 53.432Z" fill="#FBBC05"/>
<path d="M287.926 48.392V53H252.286V2.6H286.846V7.208H257.614V25.136H283.678V29.672H257.614V48.392H287.926Z" fill="#34A853"/>
</svg>
